<svg width="162" height="205" viewBox="0 0 162 205" fill="none" xmlns="http://www.w3.org/2000/svg">
<mask id="mask0_2024_3" style="mask-type:luminance" maskUnits="userSpaceOnUse" x="0" y="0" width="162" height="162">
<path d="M162 0H0V162H162V0Z" fill="white"/>
</mask>
<g mask="url(#mask0_2024_3)">
<path d="M-0.723785 8.65914V158.489C-0.723785 160.428 0.848677 162.001 2.78826 162.001H54.2984C56.2381 162.001 57.8104 160.428 57.8104 158.489V127.669C57.8104 124.421 61.8398 122.913 63.9717 125.363L94.8075 160.794C95.4749 161.561 96.4407 162.001 97.4569 162.001H133.215C136.228 162.001 137.843 158.456 135.865 156.182L5.43729 6.35313C3.30512 3.90382 -0.723785 5.41177 -0.723785 8.65914Z" fill="#F99556"/>
<path d="M25.4121 5.09357L155.839 154.923C157.972 157.373 162 155.864 162 152.618V115.173V84.7355C162 82.7957 160.428 81.2235 158.488 81.2235H130.219C129.212 81.2235 128.254 80.7916 127.588 80.0388L120.338 71.844C118.333 69.5764 119.942 66.0047 122.968 66.0047H158.488C160.428 66.0047 162 64.4322 162 62.4925V42.0056C162 40.0659 160.428 38.4935 158.488 38.4935H92.7894C91.764 38.4935 90.79 38.0455 90.1226 37.2671L82.0952 27.9016C80.1425 25.6235 81.7616 22.1039 84.762 22.1039H158.488C160.428 22.1039 162 20.5316 162 18.5919V2.78768C162 0.84809 160.428 -0.724373 158.488 -0.724373H28.0609C25.0478 -0.724373 23.4335 2.82093 25.4121 5.09357Z" fill="#FA6E62"/>
</g>
<path d="M0.211578 204L9.15832 182.782H12.4227L21.3694 204H17.4099L15.2034 198.59H6.166L3.95954 204H0.211578ZM10.6998 187.588L7.58659 195.114H13.7828L10.6998 187.588Z" fill="white"/>
<path d="M24.5384 204V182.842H36.7797V186.318H28.2561V191.577H35.8729V195.053H28.2561V200.524H37.0819V204H24.5384Z" fill="white"/>
<path d="M40.3522 201.733C40.3522 200.675 41.2589 199.496 42.7702 199.496C44.0699 199.496 44.9767 200.675 44.9767 201.733C44.9767 202.972 44.0699 204.151 42.7702 204.151C41.2589 204.151 40.3522 202.972 40.3522 201.733Z" fill="white"/>
<path d="M57.767 198.378C57.767 194.207 48.1855 195.235 48.1855 188.343C48.1855 185.17 50.664 182.51 54.7747 182.51C57.3741 182.51 59.5503 183.386 60.8198 184.777L58.8249 187.557C57.7972 186.56 56.7696 185.986 55.0769 185.986C53.2332 185.986 52.1148 186.923 52.1148 188.313C52.1148 192.696 61.6963 191.305 61.6963 198.348C61.6963 201.914 58.5831 204.332 54.6236 204.332C51.9033 204.332 48.7296 203.154 47.7019 201.008L49.8177 198.469C51.0569 200.071 53.0518 200.857 54.684 200.857C56.4371 200.857 57.767 199.98 57.767 198.378Z" fill="white"/>
<path d="M63.3507 186.318V182.842H80.7908V186.318H73.9296V204H70.2119V186.318H63.3507Z" fill="white"/>
<path d="M101.123 182.842V195.235C101.123 201.703 97.1633 204.332 92.7202 204.332C87.4609 204.332 83.713 201.219 83.713 195.023V182.842H87.4307V194.237C87.4307 198.197 89.0629 200.857 92.7202 200.857C95.9241 200.857 97.4353 198.59 97.4353 194.479V182.842H101.123Z" fill="white"/>
<path d="M106.714 204V182.842H107.107C108.376 182.842 111.399 182.751 112.94 182.751C121.403 182.751 124.819 187.618 124.819 193.21C124.819 199.164 120.769 204.06 112.698 204.06C111.429 204.06 109.071 204 107.137 204H106.714ZM112.88 186.227C112.003 186.227 111.278 186.258 110.432 186.318V200.524C111.459 200.585 112.306 200.585 112.819 200.585C117.927 200.585 120.89 197.683 120.89 193.21C120.89 188.948 117.927 186.227 112.88 186.227Z" fill="white"/>
<path d="M129.571 204V182.842H133.288V204H129.571Z" fill="white"/>
<path d="M138.024 193.421C138.024 187.285 142.528 182.51 149.026 182.51C155.313 182.51 160.058 186.832 160.058 193.421C160.058 199.768 155.313 204.332 149.026 204.332C142.739 204.332 138.024 200.01 138.024 193.421ZM141.953 193.421C141.953 197.653 145.067 200.857 149.026 200.857C153.469 200.857 156.129 197.592 156.129 193.421C156.129 189.038 153.016 185.986 149.026 185.986C144.976 185.986 141.953 189.038 141.953 193.421Z" fill="white"/>
</svg>
