<svg width="256" height="256" viewBox="0 0 256 256" fill="none" xmlns="http://www.w3.org/2000/svg">
<rect width="256" height="256" rx="2.80412" fill="url(#paint0_linear_2022_90)"/>
<path d="M57.364 85.0843L46.6477 83.2268V74.368H68.2231C70.2235 74.368 73.3193 74.2728 77.5106 74.0823C83.0354 73.7013 88.0364 73.5107 92.5134 73.5107C102.42 73.5107 110.231 74.7491 115.946 77.2257C121.757 79.6071 125.853 83.0839 128.234 87.6562C130.711 92.1332 131.949 97.8486 131.949 104.802C131.949 116.805 128.187 126.14 120.661 132.807C113.232 139.475 102.896 142.809 89.6557 142.809C84.4166 142.809 80.654 142.666 78.3679 142.381V170.529L97.5143 171.958V180.531H46.0762V171.958L57.364 170.529V85.0843ZM78.225 133.236C80.4159 133.712 84.1309 133.951 89.3699 133.951C95.7521 133.951 100.848 131.76 104.658 127.378C108.564 122.901 110.517 115.519 110.517 105.231C110.517 97.2294 108.754 91.4188 105.23 87.7991C101.801 84.0841 96.5141 82.2266 89.3699 82.2266C86.7028 82.2266 83.9404 82.4172 81.0827 82.7982C79.7491 82.9887 78.7965 83.0839 78.225 83.0839V133.236Z" fill="black"/>
<path d="M165.689 141.523L142.113 111.089L134.683 109.375V101.087H175.976V109.375L166.689 111.089L177.977 126.949L181.692 132.95L185.407 126.949L196.98 111.089L187.264 109.375V101.087H218.27V109.375L210.126 111.089L187.55 138.809L212.269 170.815L220.128 172.1V180.531H178.834V172.1L187.264 170.672L176.262 153.954L171.976 147.667L168.546 153.811L156.83 170.672L167.832 172.1V180.531H133.54V172.1L142.685 170.672L165.689 141.523Z" fill="black"/>
<defs>
<linearGradient id="paint0_linear_2022_90" x1="0" y1="128" x2="256" y2="128" gradientUnits="userSpaceOnUse">
<stop stop-color="#FBBF24"/>
<stop offset="1" stop-color="#D97706"/>
</linearGradient>
</defs>
</svg>
