<svg width="61" height="61" viewBox="0 0 61 61" fill="none" xmlns="http://www.w3.org/2000/svg">
<rect y="0.711365" width="60.2887" height="60.2887" rx="2.80412" fill="url(#paint0_linear_2010_136)"/>
<path d="M13.5094 20.749L10.9856 20.3115V18.2252H16.0667C16.5378 18.2252 17.2669 18.2028 18.2539 18.1579C19.5551 18.0682 20.7328 18.0233 21.7871 18.0233C24.1202 18.0233 25.9597 18.315 27.3056 18.8982C28.6741 19.4591 29.6387 20.2779 30.1995 21.3546C30.7828 22.409 31.0744 23.755 31.0744 25.3926C31.0744 28.2191 30.1883 30.4176 28.4161 31.9879C26.6663 33.5582 24.2323 34.3433 21.1141 34.3433C19.8803 34.3433 18.9942 34.3097 18.4558 34.2424V40.8713L22.9649 41.2078V43.2268H10.8511V41.2078L13.5094 40.8713V20.749ZM18.4222 32.0888C18.9381 32.201 19.813 32.2571 21.0468 32.2571C22.5499 32.2571 23.75 31.7411 24.6473 30.7092C25.5671 29.6548 26.027 27.9163 26.027 25.4935C26.027 23.6092 25.612 22.2407 24.7819 21.3883C23.9743 20.5134 22.7293 20.076 21.0468 20.076C20.4187 20.076 19.7682 20.1208 19.0952 20.2106C18.7811 20.2554 18.5568 20.2779 18.4222 20.2779V32.0888ZM39.0201 34.0405L33.468 26.8732L31.7182 26.4694V24.5177H41.4429V26.4694L39.2557 26.8732L41.914 30.6082L42.7889 32.0215L43.6638 30.6082L46.3894 26.8732L44.1012 26.4694V24.5177H51.4031V26.4694L49.4851 26.8732L44.1685 33.4012L49.9899 40.9386L51.8406 41.2415V43.2268H42.1159V41.2415L44.1012 40.905L41.5102 36.968L40.5007 35.4874L39.6931 36.9344L36.9339 40.905L39.5249 41.2415V43.2268H31.449V41.2415L33.6026 40.905L39.0201 34.0405Z" fill="black"/>
<defs>
<linearGradient id="paint0_linear_2010_136" x1="0" y1="30.8557" x2="60.2887" y2="30.8557" gradientUnits="userSpaceOnUse">
<stop stop-color="#FFAE4F"/>
<stop offset="1" stop-color="#FA6E62"/>
</linearGradient>
</defs>
</svg>
