<svg width="138" height="137" viewBox="0 0 138 137" fill="none" xmlns="http://www.w3.org/2000/svg">
<g clip-path="url(#clip0_2008_292)">
<path d="M123.952 0H13.7095C6.32164 0 0.330566 5.99107 0.330566 13.3789V123.621C0.330566 131.009 6.32164 137 13.7095 137H123.952C131.339 137 137.331 131.009 137.331 123.621V13.3789C137.331 5.99107 131.339 0 123.952 0ZM79.8013 76.0136H62.6174V124.959H49.0057V76.0136H31.9048V65.0215H79.8013V76.0136ZM124.187 116.281C121.523 121.05 116.623 123.732 111.413 124.841C105.363 126.13 98.9302 126.06 92.8618 124.924C89.889 124.368 87.3149 123.53 85.1368 122.414V109.017C87.5664 111.056 90.2047 112.583 93.0517 113.6C95.8988 114.62 98.7752 115.128 101.679 115.128C104.248 115.128 107.108 114.811 109.32 113.392C110.838 112.423 111.854 110.894 111.854 109.06C111.855 106.565 110.05 104.679 108.106 103.368C105.259 101.449 101.985 100.202 98.8314 98.8891C94.1408 96.9358 90.6435 94.549 88.3397 91.7314C84.3311 86.8288 83.6747 78.9941 86.769 73.4585C89.4097 68.7344 94.2799 65.9436 99.4174 64.7087C105.02 63.362 111.096 63.3606 116.775 64.2484C119.189 64.6257 121.415 65.2037 123.454 65.985V78.5023C122.448 77.804 121.353 77.1912 120.165 76.6614C117.823 75.6168 115.294 74.9104 112.754 74.5663C110.212 74.2264 107.539 74.1673 105.028 74.7562C103.051 75.2149 100.974 76.1292 99.8348 77.8949C99.3612 78.6361 99.1231 79.4656 99.1231 80.3861C99.1231 81.3895 99.388 82.291 99.9175 83.0857C101.261 85.1016 103.619 86.3994 105.74 87.4394C109.46 89.2638 113.364 90.6373 116.941 92.7562C120.41 94.8037 123.495 97.6609 125.003 101.463C125.728 103.291 126.092 105.418 126.092 107.845C126.092 111.195 125.458 114.007 124.187 116.281Z" fill="url(#paint0_linear_2008_292)"/>
</g>
<defs>
<linearGradient id="paint0_linear_2008_292" x1="121.331" y1="148" x2="40.8306" y2="21" gradientUnits="userSpaceOnUse">
<stop stop-color="#FF9029"/>
<stop offset="1" stop-color="#FA6E62" stop-opacity="0.2"/>
</linearGradient>
<clipPath id="clip0_2008_292">
<rect width="137" height="137" fill="white" transform="translate(0.330566)"/>
</clipPath>
</defs>
</svg>
