<svg width="85" height="68" viewBox="0 0 85 68" fill="none" xmlns="http://www.w3.org/2000/svg">
<rect y="7.71136" width="60.2887" height="60.2887" rx="2.80412" fill="url(#paint0_linear_2006_108)"/>
<path d="M13.5093 27.749L10.9856 27.3115V25.2252H16.0667C16.5378 25.2252 17.2669 25.2028 18.2539 25.1579C19.555 25.0682 20.7328 25.0233 21.7871 25.0233C24.1201 25.0233 25.9597 25.315 27.3056 25.8982C28.674 26.4591 29.6387 27.2779 30.1995 28.3546C30.7827 29.409 31.0744 30.755 31.0744 32.3926C31.0744 35.2191 30.1883 37.4176 28.4161 38.9879C26.6663 40.5582 24.2323 41.3433 21.1141 41.3433C19.8803 41.3433 18.9942 41.3097 18.4558 41.2424V47.8713L22.9648 48.2078V50.2268H10.851V48.2078L13.5093 47.8713V27.749ZM18.4222 39.0888C18.9381 39.201 19.813 39.2571 21.0468 39.2571C22.5498 39.2571 23.75 38.7411 24.6473 37.7092C25.5671 36.6548 26.027 34.9163 26.027 32.4935C26.027 30.6092 25.6119 29.2407 24.7819 28.3883C23.9743 27.5134 22.7293 27.076 21.0468 27.076C20.4187 27.076 19.7681 27.1208 19.0952 27.2106C18.7811 27.2554 18.5568 27.2779 18.4222 27.2779V39.0888ZM39.0201 41.0405L33.468 33.8732L31.7182 33.4694V31.5177H41.4429V33.4694L39.2557 33.8732L41.914 37.6082L42.7889 39.0215L43.6638 37.6082L46.3894 33.8732L44.1012 33.4694V31.5177H51.4031V33.4694L49.4851 33.8732L44.1685 40.4012L49.9899 47.9386L51.8406 48.2415V50.2268H42.1159V48.2415L44.1012 47.905L41.5102 43.968L40.5007 42.4874L39.6931 43.9344L36.9339 47.905L39.5249 48.2415V50.2268H31.449V48.2415L33.6026 47.905L39.0201 41.0405Z" fill="black"/>
<mask id="path-3-inside-1_2006_108" fill="white">
<path d="M47.67 2.80412C47.67 1.25545 48.9255 0 50.4742 0H77.0824C78.6311 0 79.8865 1.25545 79.8865 2.80412V22.8041C79.8865 24.3528 78.6311 25.6082 77.0824 25.6082H50.4742C48.9255 25.6082 47.67 24.3528 47.67 22.8041V2.80412Z"/>
</mask>
<path d="M47.67 2.80412C47.67 1.25545 48.9255 0 50.4742 0H77.0824C78.6311 0 79.8865 1.25545 79.8865 2.80412V22.8041C79.8865 24.3528 78.6311 25.6082 77.0824 25.6082H50.4742C48.9255 25.6082 47.67 24.3528 47.67 22.8041V2.80412Z" fill="black"/>
<path d="M46.268 2.80412C46.268 0.979307 47.7473 -0.5 49.5721 -0.5H77.0824C78.9072 -0.5 80.3865 0.979307 80.3865 2.80412H79.3865C79.3865 1.53159 78.3549 0.5 77.0824 0.5H50.4742C49.6998 0.5 49.0721 1.53159 49.0721 2.80412H46.268ZM80.3865 23.7062C80.3865 25.531 78.9072 27.0103 77.0824 27.0103H50.4742C48.1512 27.0103 46.268 25.1271 46.268 22.8041H49.0721C49.0721 23.5785 49.6998 24.2062 50.4742 24.2062H77.0824C78.3549 24.2062 79.3865 23.5785 79.3865 22.8041L80.3865 23.7062ZM50.4742 27.0103C48.1512 27.0103 46.268 25.1271 46.268 22.8041V2.80412C46.268 0.979307 47.7473 -0.5 49.5721 -0.5L50.4742 0.5C49.6998 0.5 49.0721 1.53159 49.0721 2.80412V22.8041C49.0721 23.5785 49.6998 24.2062 50.4742 24.2062L50.4742 27.0103ZM77.0824 -0.5C78.9072 -0.5 80.3865 0.979307 80.3865 2.80412V23.7062C80.3865 25.531 78.9072 27.0103 77.0824 27.0103V24.2062C78.3549 24.2062 79.3865 23.5785 79.3865 22.8041V2.80412C79.3865 1.53159 78.3549 0.5 77.0824 0.5V-0.5Z" fill="#FBA155" mask="url(#path-3-inside-1_2006_108)"/>
<path d="M58.0738 17.9441C57.2151 17.9441 56.5011 17.7855 55.9318 17.4681C55.3718 17.1508 54.9471 16.7075 54.6578 16.1381C54.3685 15.5688 54.2098 14.9061 54.1818 14.1501C54.1725 13.7675 54.1678 13.3568 54.1678 12.9181C54.1678 12.4795 54.1725 12.0595 54.1818 11.6581C54.2098 10.9021 54.3685 10.2395 54.6578 9.67014C54.9471 9.1008 55.3718 8.65747 55.9318 8.34014C56.5011 8.0228 57.2151 7.86414 58.0738 7.86414C58.7178 7.86414 59.2825 7.9528 59.7678 8.13014C60.2531 8.30747 60.6545 8.54547 60.9718 8.84414C61.2985 9.1428 61.5458 9.4788 61.7138 9.85214C61.8818 10.2161 61.9751 10.5941 61.9938 10.9861C62.0031 11.0701 61.9751 11.1401 61.9098 11.1961C61.8538 11.2521 61.7838 11.2801 61.6998 11.2801H60.9298C60.8458 11.2801 60.7711 11.2568 60.7058 11.2101C60.6498 11.1635 60.6078 11.0795 60.5798 10.9581C60.4211 10.2301 60.1225 9.7308 59.6838 9.46014C59.2545 9.18947 58.7131 9.05414 58.0598 9.05414C57.3131 9.05414 56.7205 9.2688 56.2818 9.69814C55.8431 10.1181 55.6051 10.7948 55.5678 11.7281C55.5398 12.4935 55.5398 13.2775 55.5678 14.0801C55.6051 15.0135 55.8431 15.6948 56.2818 16.1241C56.7205 16.5441 57.3131 16.7541 58.0598 16.7541C58.7131 16.7541 59.2545 16.6188 59.6838 16.3481C60.1225 16.0775 60.4211 15.5781 60.5798 14.8501C60.6078 14.7288 60.6498 14.6448 60.7058 14.5981C60.7711 14.5515 60.8458 14.5281 60.9298 14.5281H61.6998C61.7838 14.5281 61.8538 14.5561 61.9098 14.6121C61.9751 14.6681 62.0031 14.7381 61.9938 14.8221C61.9751 15.2141 61.8818 15.5968 61.7138 15.9701C61.5458 16.3341 61.2985 16.6655 60.9718 16.9641C60.6545 17.2628 60.2531 17.5008 59.7678 17.6781C59.2825 17.8555 58.7178 17.9441 58.0738 17.9441ZM64.122 17.8041C64.0194 17.8041 63.94 17.7761 63.884 17.7201C63.828 17.6548 63.8 17.5755 63.8 17.4821V8.32614C63.8 8.2328 63.828 8.15814 63.884 8.10214C63.94 8.0368 64.0194 8.00414 64.122 8.00414H64.864C64.9574 8.00414 65.032 8.0368 65.088 8.10214C65.144 8.15814 65.172 8.2328 65.172 8.32614V16.5861H69.834C69.9367 16.5861 70.016 16.6188 70.072 16.6841C70.128 16.7401 70.156 16.8195 70.156 16.9221V17.4821C70.156 17.5755 70.128 17.6548 70.072 17.7201C70.016 17.7761 69.9367 17.8041 69.834 17.8041H64.122ZM71.9407 17.8041C71.838 17.8041 71.7587 17.7761 71.7027 17.7201C71.6467 17.6548 71.6187 17.5755 71.6187 17.4821V8.32614C71.6187 8.2328 71.6467 8.15814 71.7027 8.10214C71.7587 8.0368 71.838 8.00414 71.9407 8.00414H72.6827C72.776 8.00414 72.8507 8.0368 72.9067 8.10214C72.972 8.15814 73.0047 8.2328 73.0047 8.32614V17.4821C73.0047 17.5755 72.972 17.6548 72.9067 17.7201C72.8507 17.7761 72.776 17.8041 72.6827 17.8041H71.9407Z" fill="#F8A556"/>
<defs>
<linearGradient id="paint0_linear_2006_108" x1="0" y1="37.8557" x2="60.2887" y2="37.8557" gradientUnits="userSpaceOnUse">
<stop stop-color="#FFAE4F"/>
<stop offset="1" stop-color="#FA6E62"/>
</linearGradient>
</defs>
</svg>
